<mxfile host="app.diagrams.net" modified="2022-01-13T08:04:59.870Z" agent="5.0 (Windows NT 10.0; Win64; x64) AppleWebKit/537.36 (KHTML, like Gecko) Chrome/97.0.4692.71 Safari/537.36 Edg/97.0.1072.55" etag="EbvENZCAXklhE3p83abY" version="16.2.4" type="github">
  <diagram id="0nN30zPmOVBQ-fwQmGSh" name="Page-1">
    <mxGraphModel dx="1298" dy="729" grid="1" gridSize="10" guides="1" tooltips="1" connect="1" arrows="1" fold="1" page="1" pageScale="1" pageWidth="827" pageHeight="1169" math="0" shadow="0">
      <root>
        <mxCell id="0" />
        <mxCell id="1" parent="0" />
        <mxCell id="mcl7da9vja-RPYYi4eBO-11" style="edgeStyle=orthogonalEdgeStyle;rounded=0;orthogonalLoop=1;jettySize=auto;html=1;fontSize=16;" edge="1" parent="1" source="mcl7da9vja-RPYYi4eBO-1" target="mcl7da9vja-RPYYi4eBO-4">
          <mxGeometry relative="1" as="geometry" />
        </mxCell>
        <mxCell id="mcl7da9vja-RPYYi4eBO-16" value="put in" style="edgeLabel;html=1;align=center;verticalAlign=middle;resizable=0;points=[];fontSize=16;" vertex="1" connectable="0" parent="mcl7da9vja-RPYYi4eBO-11">
          <mxGeometry x="-0.2375" y="4" relative="1" as="geometry">
            <mxPoint y="-1" as="offset" />
          </mxGeometry>
        </mxCell>
        <mxCell id="mcl7da9vja-RPYYi4eBO-1" value="" style="rounded=0;whiteSpace=wrap;html=1;" vertex="1" parent="1">
          <mxGeometry x="370" y="190" width="180" height="30" as="geometry" />
        </mxCell>
        <mxCell id="mcl7da9vja-RPYYi4eBO-2" value="packet" style="rounded=0;whiteSpace=wrap;html=1;" vertex="1" parent="1">
          <mxGeometry x="370" y="190" width="140" height="30" as="geometry" />
        </mxCell>
        <mxCell id="mcl7da9vja-RPYYi4eBO-8" style="edgeStyle=orthogonalEdgeStyle;rounded=0;orthogonalLoop=1;jettySize=auto;html=1;entryX=0;entryY=0.5;entryDx=0;entryDy=0;fontSize=16;" edge="1" parent="1" source="mcl7da9vja-RPYYi4eBO-3" target="mcl7da9vja-RPYYi4eBO-6">
          <mxGeometry relative="1" as="geometry" />
        </mxCell>
        <mxCell id="mcl7da9vja-RPYYi4eBO-15" value="send" style="edgeLabel;html=1;align=center;verticalAlign=middle;resizable=0;points=[];fontSize=16;" vertex="1" connectable="0" parent="mcl7da9vja-RPYYi4eBO-8">
          <mxGeometry x="-0.1556" relative="1" as="geometry">
            <mxPoint as="offset" />
          </mxGeometry>
        </mxCell>
        <mxCell id="mcl7da9vja-RPYYi4eBO-3" value="&lt;font style=&quot;font-size: 16px&quot;&gt;1&lt;/font&gt;" style="text;html=1;resizable=0;autosize=1;align=center;verticalAlign=middle;points=[];fillColor=none;strokeColor=none;rounded=0;" vertex="1" parent="1">
          <mxGeometry x="520" y="195" width="20" height="20" as="geometry" />
        </mxCell>
        <mxCell id="mcl7da9vja-RPYYi4eBO-21" style="edgeStyle=orthogonalEdgeStyle;rounded=0;orthogonalLoop=1;jettySize=auto;html=1;entryX=0.643;entryY=0.008;entryDx=0;entryDy=0;entryPerimeter=0;fontSize=16;startArrow=none;" edge="1" parent="1" source="mcl7da9vja-RPYYi4eBO-22" target="mcl7da9vja-RPYYi4eBO-18">
          <mxGeometry relative="1" as="geometry" />
        </mxCell>
        <mxCell id="mcl7da9vja-RPYYi4eBO-27" style="edgeStyle=orthogonalEdgeStyle;rounded=0;orthogonalLoop=1;jettySize=auto;html=1;exitX=1;exitY=1;exitDx=0;exitDy=0;entryX=0.5;entryY=1;entryDx=0;entryDy=0;fontSize=16;" edge="1" parent="1" source="mcl7da9vja-RPYYi4eBO-4" target="mcl7da9vja-RPYYi4eBO-6">
          <mxGeometry relative="1" as="geometry">
            <Array as="points">
              <mxPoint x="371" y="460" />
              <mxPoint x="760" y="460" />
            </Array>
          </mxGeometry>
        </mxCell>
        <mxCell id="mcl7da9vja-RPYYi4eBO-28" value="resend" style="edgeLabel;html=1;align=center;verticalAlign=middle;resizable=0;points=[];fontSize=16;" vertex="1" connectable="0" parent="mcl7da9vja-RPYYi4eBO-27">
          <mxGeometry x="-0.0772" y="-3" relative="1" as="geometry">
            <mxPoint as="offset" />
          </mxGeometry>
        </mxCell>
        <mxCell id="mcl7da9vja-RPYYi4eBO-4" value="cache" style="ellipse;whiteSpace=wrap;html=1;fontSize=16;" vertex="1" parent="1">
          <mxGeometry x="200" y="300" width="200" height="90" as="geometry" />
        </mxCell>
        <mxCell id="mcl7da9vja-RPYYi4eBO-12" style="edgeStyle=orthogonalEdgeStyle;rounded=0;orthogonalLoop=1;jettySize=auto;html=1;exitX=0.5;exitY=1;exitDx=0;exitDy=0;entryX=1;entryY=0.5;entryDx=0;entryDy=0;fontSize=16;" edge="1" parent="1" source="mcl7da9vja-RPYYi4eBO-6" target="mcl7da9vja-RPYYi4eBO-4">
          <mxGeometry relative="1" as="geometry" />
        </mxCell>
        <mxCell id="mcl7da9vja-RPYYi4eBO-14" value="ack" style="edgeLabel;html=1;align=center;verticalAlign=middle;resizable=0;points=[];fontSize=16;" vertex="1" connectable="0" parent="mcl7da9vja-RPYYi4eBO-12">
          <mxGeometry x="0.1098" y="-3" relative="1" as="geometry">
            <mxPoint as="offset" />
          </mxGeometry>
        </mxCell>
        <mxCell id="mcl7da9vja-RPYYi4eBO-6" value="Gate" style="ellipse;whiteSpace=wrap;html=1;aspect=fixed;fontSize=16;" vertex="1" parent="1">
          <mxGeometry x="720" y="165" width="80" height="80" as="geometry" />
        </mxCell>
        <mxCell id="mcl7da9vja-RPYYi4eBO-7" value="" style="endArrow=none;dashed=1;html=1;rounded=0;fontSize=16;" edge="1" parent="1">
          <mxGeometry width="50" height="50" relative="1" as="geometry">
            <mxPoint x="570" y="560" as="sourcePoint" />
            <mxPoint x="570" y="90" as="targetPoint" />
          </mxGeometry>
        </mxCell>
        <mxCell id="mcl7da9vja-RPYYi4eBO-9" value="client" style="text;html=1;resizable=0;autosize=1;align=center;verticalAlign=middle;points=[];fillColor=none;strokeColor=none;rounded=0;fontSize=16;" vertex="1" parent="1">
          <mxGeometry x="275" y="130" width="50" height="20" as="geometry" />
        </mxCell>
        <mxCell id="mcl7da9vja-RPYYi4eBO-10" value="Server" style="text;html=1;resizable=0;autosize=1;align=center;verticalAlign=middle;points=[];fillColor=none;strokeColor=none;rounded=0;fontSize=16;" vertex="1" parent="1">
          <mxGeometry x="730" y="130" width="60" height="20" as="geometry" />
        </mxCell>
        <mxCell id="mcl7da9vja-RPYYi4eBO-17" value="" style="rounded=0;whiteSpace=wrap;html=1;" vertex="1" parent="1">
          <mxGeometry x="60" y="490" width="180" height="30" as="geometry" />
        </mxCell>
        <mxCell id="mcl7da9vja-RPYYi4eBO-18" value="packet" style="rounded=0;whiteSpace=wrap;html=1;" vertex="1" parent="1">
          <mxGeometry x="60" y="490" width="140" height="30" as="geometry" />
        </mxCell>
        <mxCell id="mcl7da9vja-RPYYi4eBO-19" value="&lt;font style=&quot;font-size: 16px&quot;&gt;1&lt;/font&gt;" style="text;html=1;resizable=0;autosize=1;align=center;verticalAlign=middle;points=[];fillColor=none;strokeColor=none;rounded=0;" vertex="1" parent="1">
          <mxGeometry x="210" y="495" width="20" height="20" as="geometry" />
        </mxCell>
        <mxCell id="mcl7da9vja-RPYYi4eBO-22" value="pop" style="text;html=1;resizable=0;autosize=1;align=center;verticalAlign=middle;points=[];fillColor=none;strokeColor=none;rounded=0;fontSize=16;" vertex="1" parent="1">
          <mxGeometry x="170" y="430" width="40" height="20" as="geometry" />
        </mxCell>
        <mxCell id="mcl7da9vja-RPYYi4eBO-23" value="" style="edgeStyle=orthogonalEdgeStyle;rounded=0;orthogonalLoop=1;jettySize=auto;html=1;entryX=0.643;entryY=0.008;entryDx=0;entryDy=0;entryPerimeter=0;fontSize=16;endArrow=none;" edge="1" parent="1" source="mcl7da9vja-RPYYi4eBO-4" target="mcl7da9vja-RPYYi4eBO-22">
          <mxGeometry relative="1" as="geometry">
            <mxPoint x="300" y="390" as="sourcePoint" />
            <mxPoint x="150.0200000000002" y="490.24" as="targetPoint" />
          </mxGeometry>
        </mxCell>
      </root>
    </mxGraphModel>
  </diagram>
</mxfile>
